<svg width="48" height="48" viewBox="0 0 48 48" fill="none" xmlns="http://www.w3.org/2000/svg">
  <rect width="48" height="48" rx="24" fill="#DBEAFE"/>
  <path d="M16 20C16 17.7909 17.7909 16 20 16H28C30.2091 16 32 17.7909 32 20V22H16V20Z" fill="#3B82F6"/>
  <path d="M16 26C16 23.7909 17.7909 22 20 22H28C30.2091 22 32 23.7909 32 26V28H16V26Z" fill="#3B82F6"/>
  <path d="M16 32C16 29.7909 17.7909 28 20 28H28C30.2091 28 32 29.7909 32 32V34H16V32Z" fill="#3B82F6"/>
  <circle cx="24" cy="18" r="2" fill="#FFFFFF"/>
  <circle cx="24" cy="24" r="2" fill="#FFFFFF"/>
  <circle cx="24" cy="30" r="2" fill="#FFFFFF"/>
</svg>
